<svg width="20" height="20" viewBox="0 0 20 20" fill="none" xmlns="http://www.w3.org/2000/svg">
<mask id="mask0_2_41" style="mask-type:alpha" maskUnits="userSpaceOnUse" x="0" y="0" width="20" height="20">
<rect width="20" height="20" rx="3" fill="#E5E5E5"/>
</mask>
<g mask="url(#mask0_2_41)">
<path d="M16.4508 15.2412C16.0996 14.3992 15.5899 13.6344 14.9502 12.9893C14.3125 12.3424 13.557 11.8266 12.7255 11.4705C12.7181 11.4667 12.7106 11.4648 12.7032 11.4611C13.863 10.6131 14.617 9.23178 14.617 7.67337C14.617 5.09171 12.5505 3 10 3C7.44949 3 5.38301 5.09171 5.38301 7.67337C5.38301 9.23178 6.13699 10.6131 7.29683 11.4629C7.28938 11.4667 7.28193 11.4686 7.27449 11.4724C6.44045 11.8285 5.69205 12.3392 5.04977 12.9912C4.41067 13.6367 3.90111 14.4015 3.54925 15.2431C3.20357 16.0671 3.01714 16.9505 3.00005 17.8455C2.99955 17.8656 3.00303 17.8856 3.0103 17.9043C3.01756 17.9231 3.02845 17.9401 3.04233 17.9545C3.05621 17.9689 3.0728 17.9804 3.09111 17.9882C3.10943 17.996 3.12911 18 3.14898 18H4.266C4.34791 18 4.41307 17.934 4.41493 17.853C4.45216 16.3982 5.02929 15.0358 6.04949 14.0031C7.10507 12.9347 8.50693 12.3467 10 12.3467C11.4931 12.3467 12.8949 12.9347 13.9505 14.0031C14.9707 15.0358 15.5478 16.3982 15.5851 17.853C15.5869 17.9359 15.6521 18 15.734 18H16.851C16.8709 18 16.8906 17.996 16.9089 17.9882C16.9272 17.9804 16.9438 17.9689 16.9577 17.9545C16.9715 17.9401 16.9824 17.9231 16.9897 17.9043C16.997 17.8856 17.0005 17.8656 17 17.8455C16.9813 16.9447 16.797 16.0685 16.4508 15.2412ZM10 10.9146C9.14548 10.9146 8.34123 10.5773 7.73619 9.96482C7.13114 9.35239 6.79789 8.53832 6.79789 7.67337C6.79789 6.80842 7.13114 5.99435 7.73619 5.38191C8.34123 4.76947 9.14548 4.43216 10 4.43216C10.8545 4.43216 11.6588 4.76947 12.2638 5.38191C12.8689 5.99435 13.2021 6.80842 13.2021 7.67337C13.2021 8.53832 12.8689 9.35239 12.2638 9.96482C11.6588 10.5773 10.8545 10.9146 10 10.9146Z" fill="black"/>
</g>
</svg>
