<svg width="20" height="20" viewBox="0 0 20 20" fill="none" xmlns="http://www.w3.org/2000/svg">
<g opacity="0.5">
<mask id="mask0_2_211" style="mask-type:alpha" maskUnits="userSpaceOnUse" x="0" y="0" width="20" height="20">
<rect width="20" height="20" rx="3" fill="#E5E5E5"/>
</mask>
<g mask="url(#mask0_2_211)">
<path d="M13.2437 5.74468V5.84468H13.3438H16C16.5371 5.84468 16.9854 6.02644 17.3514 6.39008C17.716 6.75239 17.9 7.21529 17.9 7.78723V10.5C17.9 10.7085 17.849 10.8464 17.7645 10.9327C17.6804 11.0186 17.5465 11.0702 17.3438 11.0702H17.2437V11.1702V16.6277C17.2437 16.9612 17.12 17.2558 16.866 17.5151C16.6121 17.7745 16.3246 17.9 16 17.9H4C3.67536 17.9 3.38791 17.7745 3.13395 17.5151C2.88 17.2558 2.75625 16.9612 2.75625 16.6277V11.1702V11.0702H2.65625C2.45345 11.0702 2.3196 11.0186 2.23551 10.9327C2.15104 10.8464 2.1 10.7085 2.1 10.5V7.78723C2.1 7.21529 2.284 6.75239 2.64861 6.39008C3.01457 6.02644 3.46287 5.84468 4 5.84468H6.65625H6.75625V5.74468V5.04255C6.75625 4.493 6.93956 4.03445 7.30583 3.66039C7.67199 3.28643 8.12 3.1 8.65625 3.1H11.3438C11.88 3.1 12.328 3.28643 12.6942 3.66039C13.0604 4.03445 13.2437 4.493 13.2437 5.04255V5.74468ZM12 5.84468H12.1V5.74468V5.04255C12.1 4.82698 12.0287 4.64165 11.884 4.49387C11.7391 4.34596 11.5567 4.27234 11.3438 4.27234H8.65625C8.44335 4.27234 8.26087 4.34596 8.11605 4.49387C7.97135 4.64165 7.9 4.82698 7.9 5.04255V5.74468V5.84468H8H12ZM3.9 16.6277V16.7277H4H16H16.1V16.6277V11.1702V11.0702H16H12H11.9V11.1702V13.2128C11.9 13.5704 11.7795 13.8695 11.5379 14.1162C11.2965 14.3628 11.0046 14.4851 10.6562 14.4851H9.34375C8.99541 14.4851 8.70352 14.3628 8.46208 14.1162C8.22054 13.8695 8.1 13.5704 8.1 13.2128V11.1702V11.0702H8H4H3.9V11.1702V16.6277ZM9.24375 13.2128V13.3128H9.34375H10.6562H10.7563V13.2128V11.1702V11.0702H10.6562H9.34375H9.24375V11.1702V13.2128ZM16.6562 9.92979H16.7563V9.82979V7.78723C16.7563 7.53939 16.6985 7.3349 16.5652 7.19235C16.4308 7.04854 16.236 6.98511 16 6.98511H4C3.76404 6.98511 3.56917 7.04854 3.43476 7.19235C3.30153 7.3349 3.24375 7.53939 3.24375 7.78723V9.82979V9.92979H3.34375H16.6562Z" fill="black" stroke="white" stroke-width="0.2"/>
</g>
</g>
</svg>
