<svg width="20" height="20" viewBox="0 0 20 20" fill="none" xmlns="http://www.w3.org/2000/svg">
<mask id="mask0_2_9" style="mask-type:alpha" maskUnits="userSpaceOnUse" x="0" y="0" width="20" height="20">
<rect width="20" height="20" rx="3" fill="#C4C4C4" fill-opacity="0.81"/>
</mask>
<g mask="url(#mask0_2_9)">
<path d="M4.45556 5.75V5.85H4.55556H7.66667H7.76667V5.75V3.5V3.4H7.66667H4.55556H4.45556V3.5V5.75ZM4.45556 15.5V15.6H4.55556H7.66667H7.76667V15.5V9.5V9.4H7.66667H4.55556H4.45556V9.5V15.5ZM15.4444 15.6H15.5444V15.5V14V13.9H15.4444H12.3333H12.2333V14V15.5V15.6H12.3333H15.4444ZM12.2333 9.5V9.6H12.3333H15.4444H15.5444V9.5V3.5V3.4H15.4444H12.3333H12.2333V3.5V9.5ZM4.55556 7.15C4.16837 7.15 3.79774 7.00165 3.52503 6.73868C3.25244 6.47582 3.1 6.12011 3.1 5.75V3.5C3.1 3.12989 3.25244 2.77418 3.52503 2.51132C3.79774 2.24835 4.16837 2.1 4.55556 2.1H7.66667C8.05385 2.1 8.42448 2.24835 8.6972 2.51132C8.96979 2.77418 9.12222 3.12989 9.12222 3.5V5.75C9.12222 6.12011 8.96979 6.47582 8.6972 6.73868C8.42448 7.00165 8.05385 7.15 7.66667 7.15H4.55556ZM4.55556 16.9C4.16837 16.9 3.79774 16.7516 3.52503 16.4887C3.25244 16.2258 3.1 15.8701 3.1 15.5V9.5C3.1 9.12989 3.25244 8.77418 3.52503 8.51132C3.79774 8.24835 4.16837 8.1 4.55556 8.1H7.66667C8.05385 8.1 8.42448 8.24835 8.6972 8.51132C8.96979 8.77418 9.12222 9.12989 9.12222 9.5V15.5C9.12222 15.8701 8.96979 16.2258 8.6972 16.4887C8.42448 16.7516 8.05385 16.9 7.66667 16.9H4.55556ZM11.3028 16.4887C11.0302 16.2258 10.8778 15.8701 10.8778 15.5V14C10.8778 13.6299 11.0302 13.2742 11.3028 13.0113C11.5755 12.7484 11.9461 12.6 12.3333 12.6H15.4444C15.8316 12.6 16.2023 12.7484 16.475 13.0113C16.7476 13.2742 16.9 13.6299 16.9 14V15.5C16.9 15.8701 16.7476 16.2258 16.475 16.4887C16.2023 16.7516 15.8316 16.9 15.4444 16.9H12.3333C11.9461 16.9 11.5755 16.7516 11.3028 16.4887ZM12.3333 10.9C11.9461 10.9 11.5755 10.7516 11.3028 10.4887C11.0302 10.2258 10.8778 9.87011 10.8778 9.5V3.5C10.8778 3.12989 11.0302 2.77418 11.3028 2.51132C11.5755 2.24835 11.9461 2.1 12.3333 2.1H15.4444C15.8316 2.1 16.2023 2.24835 16.475 2.51132C16.7476 2.77418 16.9 3.12989 16.9 3.5V9.5C16.9 9.87011 16.7476 10.2258 16.475 10.4887C16.2023 10.7516 15.8316 10.9 15.4444 10.9H12.3333Z" fill="#FF5F1F" stroke="#F6F2F0" stroke-width="0.2"/>
</g>
</svg>
