<svg width="20" height="20" viewBox="0 0 20 20" fill="none" xmlns="http://www.w3.org/2000/svg">
<mask id="mask0_2_44" style="mask-type:alpha" maskUnits="userSpaceOnUse" x="0" y="0" width="20" height="20">
<rect width="20" height="20" rx="3" fill="#E5E5E5"/>
</mask>
<g mask="url(#mask0_2_44)">
</g>
<path d="M10.0703 10.2671L10.0703 10.2671L10.0715 10.2661C10.3309 10.0565 10.5541 9.86849 10.7118 9.6771C10.8714 9.48325 10.97 9.27874 10.97 9.03658C10.97 8.22553 10.3104 7.56667 9.50008 7.56667C8.72338 7.56667 8.08509 8.17206 8.03353 8.93658H6.81549C6.8415 8.2607 7.12141 7.61793 7.60142 7.13792C8.10505 6.63428 8.78786 6.35093 9.5001 6.35C10.2123 6.35075 10.8951 6.63406 11.3987 7.13774C11.9023 7.64145 12.1854 8.3244 12.186 9.03666C12.1859 10.1149 11.3927 10.762 10.8361 11.2128C10.8261 11.2208 10.8161 11.2289 10.8062 11.2369C10.6791 11.3392 10.5523 11.4413 10.4495 11.5441C10.1395 11.8533 10.1098 12.1404 10.1079 12.1704L10.1077 12.1704L10.1077 12.1768L10.1083 12.525H8.89175V12.1525C8.89175 12.0833 8.90888 11.3642 9.58914 10.6841C9.74254 10.5372 9.90314 10.398 10.0703 10.2671ZM10.1084 13.4333V14.65H8.89175V13.4333H10.1084Z" fill="black" stroke="white" stroke-width="0.2"/>
<path d="M2.51663 10.5C2.51663 6.64944 5.64944 3.51663 9.49996 3.51663C13.3505 3.51663 16.4833 6.64944 16.4833 10.5C16.4833 14.3505 13.3505 17.4833 9.49996 17.4833C5.64944 17.4833 2.51663 14.3505 2.51663 10.5ZM3.73329 10.5C3.73329 13.6796 6.32027 16.2666 9.49996 16.2666C12.6796 16.2666 15.2666 13.6796 15.2666 10.5C15.2666 7.32027 12.6796 4.73329 9.49996 4.73329C6.32027 4.73329 3.73329 7.32027 3.73329 10.5Z" fill="black" stroke="white" stroke-width="0.2"/>
</svg>
