<svg width="20" height="20" viewBox="0 0 20 20" fill="none" xmlns="http://www.w3.org/2000/svg">
<g opacity="0.5">
<mask id="mask0_2_200" style="mask-type:alpha" maskUnits="userSpaceOnUse" x="0" y="0" width="20" height="20">
<rect width="20" height="20" rx="3" fill="#E5E5E5"/>
</mask>
<g mask="url(#mask0_2_200)">
<path d="M15.546 4.51372C15.518 4.10301 15.3351 3.71826 15.0343 3.43725C14.7335 3.15625 14.3371 2.99996 13.9255 3H5.62417L5.513 3.00361C5.1023 3.03179 4.71761 3.21487 4.43674 3.51584C4.15587 3.81682 3.99977 4.21322 4 4.62489V15.8122L4.00361 15.9233C4.0316 16.334 4.21451 16.7188 4.51535 16.9998C4.81619 17.2808 5.2125 17.4371 5.62417 17.4371H11.0871L10.0044 16.3543H5.62417L5.55054 16.3492C5.42093 16.3314 5.30214 16.2673 5.21615 16.1687C5.13016 16.0701 5.08278 15.9437 5.08278 15.8129V4.62489L5.08783 4.55126C5.10562 4.42165 5.16975 4.30287 5.26835 4.21688C5.36694 4.13089 5.49334 4.08351 5.62417 4.0835H13.9255L13.9991 4.08855C14.1287 4.10635 14.2475 4.17047 14.3335 4.26907C14.4195 4.36766 14.4669 4.49406 14.4669 4.62489V12.9746L15.3035 12.1379C15.38 12.0614 15.4623 11.9936 15.5489 11.9358V4.62417L15.546 4.513V4.51372Z" fill="black"/>
<path d="M12.8701 17.4362C12.8518 17.4372 12.8335 17.4372 12.8152 17.4362C12.6811 17.4295 12.5543 17.3732 12.4594 17.2782L10.6547 15.4721C10.5533 15.3704 10.4963 15.2326 10.4965 15.089C10.4966 14.9454 10.5538 14.8077 10.6554 14.7062C10.7571 14.6047 10.8949 14.5478 11.0385 14.5479C11.1822 14.5481 11.3199 14.6053 11.4213 14.7069L12.8427 16.1297L16.0693 12.903C16.1193 12.8513 16.1791 12.8101 16.2451 12.7818C16.3112 12.7534 16.3822 12.7385 16.4541 12.7379C16.526 12.7373 16.5973 12.7511 16.6638 12.7783C16.7303 12.8056 16.7908 12.8458 16.8416 12.8967C16.8924 12.9475 16.9326 13.008 16.9597 13.0745C16.9869 13.1411 17.0006 13.2124 16.9999 13.2843C16.9993 13.3561 16.9843 13.4272 16.9559 13.4932C16.9275 13.5593 16.8862 13.619 16.8345 13.6689L13.2252 17.2782C13.1305 17.373 13.004 17.4293 12.8701 17.4362Z" fill="black"/>
<path d="M11.1038 13.4668C11.06 13.4651 11.0162 13.4651 10.9724 13.4668H9.2306C9.08701 13.4668 8.94931 13.4098 8.84778 13.3082C8.74625 13.2067 8.68921 13.069 8.68921 12.9254C8.68921 12.7818 8.74625 12.6441 8.84778 12.5426C8.94931 12.4411 9.08701 12.384 9.2306 12.384H12.8427C12.9863 12.384 13.124 12.4411 13.2256 12.5426C13.3271 12.6441 13.3841 12.7818 13.3841 12.9254C13.3841 13.069 13.3271 13.2067 13.2256 13.3082C13.124 13.4098 12.9863 13.4668 12.8427 13.4668H11.1031H11.1038Z" fill="black"/>
<path d="M7.60923 7.15203C7.60923 7.34348 7.53318 7.52708 7.39781 7.66245C7.26243 7.79783 7.07883 7.87388 6.88738 7.87388C6.69593 7.87388 6.51233 7.79783 6.37695 7.66245C6.24158 7.52708 6.16553 7.34348 6.16553 7.15203C6.16553 6.96058 6.24158 6.77698 6.37695 6.6416C6.51233 6.50623 6.69593 6.43018 6.88738 6.43018C7.07883 6.43018 7.26243 6.50623 7.39781 6.6416C7.53318 6.77698 7.60923 6.96058 7.60923 7.15203Z" fill="black"/>
<path d="M8.68921 7.15064C8.68921 7.00706 8.74625 6.86935 8.84778 6.76782C8.94931 6.66629 9.08701 6.60925 9.2306 6.60925H12.8427C12.9863 6.60925 13.124 6.66629 13.2256 6.76782C13.3271 6.86935 13.3841 7.00706 13.3841 7.15064C13.3841 7.29423 13.3271 7.43193 13.2256 7.53346C13.124 7.63499 12.9863 7.69203 12.8427 7.69203H9.2306C9.08701 7.69203 8.94931 7.63499 8.84778 7.53346C8.74625 7.43193 8.68921 7.29423 8.68921 7.15064Z" fill="black"/>
<path d="M9.2306 9.4967C9.08701 9.4967 8.94931 9.55374 8.84778 9.65527C8.74625 9.7568 8.68921 9.89451 8.68921 10.0381C8.68921 10.1817 8.74625 10.3194 8.84778 10.4209C8.94931 10.5224 9.08701 10.5795 9.2306 10.5795H12.8427C12.9138 10.5795 12.9842 10.5655 13.0499 10.5383C13.1156 10.5111 13.1753 10.4712 13.2256 10.4209C13.2758 10.3706 13.3157 10.311 13.3429 10.2453C13.3701 10.1796 13.3841 10.1092 13.3841 10.0381C13.3841 9.967 13.3701 9.8966 13.3429 9.83091C13.3157 9.76523 13.2758 9.70555 13.2256 9.65527C13.1753 9.605 13.1156 9.56512 13.0499 9.53792C12.9842 9.51071 12.9138 9.4967 12.8427 9.4967H9.2306Z" fill="black"/>
<path d="M6.88738 10.7599C7.07883 10.7599 7.26243 10.6838 7.39781 10.5484C7.53318 10.4131 7.60923 10.2295 7.60923 10.038C7.60923 9.84657 7.53318 9.66296 7.39781 9.52759C7.26243 9.39221 7.07883 9.31616 6.88738 9.31616C6.69593 9.31616 6.51233 9.39221 6.37695 9.52759C6.24158 9.66296 6.16553 9.84657 6.16553 10.038C6.16553 10.2295 6.24158 10.4131 6.37695 10.5484C6.51233 10.6838 6.69593 10.7599 6.88738 10.7599Z" fill="black"/>
<path d="M7.60923 12.924C7.60923 13.1154 7.53318 13.2991 7.39781 13.4344C7.26243 13.5698 7.07883 13.6459 6.88738 13.6459C6.69593 13.6459 6.51233 13.5698 6.37695 13.4344C6.24158 13.2991 6.16553 13.1154 6.16553 12.924C6.16553 12.7326 6.24158 12.5489 6.37695 12.4136C6.51233 12.2782 6.69593 12.2021 6.88738 12.2021C7.07883 12.2021 7.26243 12.2782 7.39781 12.4136C7.53318 12.5489 7.60923 12.7326 7.60923 12.924Z" fill="black"/>
</g>
</g>
</svg>
