<svg width="20" height="20" viewBox="0 0 20 20" fill="none" xmlns="http://www.w3.org/2000/svg">
<mask id="mask0_2_49" style="mask-type:alpha" maskUnits="userSpaceOnUse" x="0" y="0" width="20" height="20">
<rect width="20" height="20" rx="3" fill="#E5E5E5"/>
</mask>
<g mask="url(#mask0_2_49)">
</g>
<path d="M4.75 4.65H4.65V4.75V15.25V15.35H4.75H9.25C9.60727 15.35 9.9 15.6427 9.9 16C9.9 16.3573 9.60727 16.65 9.25 16.65H4.75C3.98023 16.65 3.35 16.0198 3.35 15.25V4.75C3.35 3.98023 3.98023 3.35 4.75 3.35H9.25C9.60727 3.35 9.9 3.64273 9.9 4C9.9 4.35727 9.60727 4.65 9.25 4.65H4.75Z" fill="black" stroke="white" stroke-width="0.2"/>
<path d="M14.3233 7.71478L14.3233 7.71479L14.3243 7.71574L16.4168 9.80824C16.5199 9.91139 16.5199 10.0867 16.4111 10.19L16.4111 10.19L16.4093 10.1918L14.3168 12.2843L14.3168 12.2843L14.3157 12.2855C14.1468 12.4598 13.85 12.3417 13.85 12.0925V10.75V10.65H13.75H8.5C8.14273 10.65 7.85 10.3573 7.85 10C7.85 9.64276 8.14273 9.35003 8.5 9.35003H13.75H13.85V9.25003V7.90753V7.90742C13.8499 7.85254 13.8663 7.79889 13.8969 7.75334C13.9275 7.70779 13.971 7.6724 14.0218 7.65171C14.0726 7.63103 14.1285 7.62598 14.1822 7.63721C14.2359 7.64845 14.2851 7.67546 14.3233 7.71478Z" fill="black" stroke="white" stroke-width="0.2"/>
</svg>
